<?xml version="1.0" standalone="no"?>
<!DOCTYPE svg PUBLIC "-//W3C//DTD SVG 20010904//EN"
 "http://www.w3.org/TR/2001/REC-SVG-20010904/DTD/svg10.dtd">
<svg version="1.0" xmlns="http://www.w3.org/2000/svg"
 width="256.000000pt" height="256.000000pt" viewBox="0 0 256.000000 256.000000"
 preserveAspectRatio="xMidYMid meet">
<metadata>
Created by potrace 1.14, written by Peter Selinger 2001-2017
</metadata>
<g transform="translate(0.000000,256.000000) scale(0.100000,-0.100000)"
fill="#000000" stroke="none">
<path d="M1160 2548 c-287 -28 -563 -159 -765 -362 -130 -132 -198 -226 -265
-369 -37 -78 -85 -227 -96 -292 -2 -16 -7 -46 -10 -65 -19 -122 -10 -320 21
-475 27 -130 127 -342 220 -466 312 -416 832 -600 1340 -473 339 84 659 344
820 664 90 180 126 337 129 560 5 351 -118 655 -366 902 -114 114 -116 116
-208 175 -249 160 -532 229 -820 201z m-280 -554 c25 -7 64 -22 88 -33 50 -26
95 -44 102 -44 3 1 28 4 55 8 92 12 368 5 383 -10 2 -2 34 11 70 30 72 35 162
65 198 65 32 0 43 -38 48 -170 2 -61 8 -84 31 -125 47 -84 54 -98 70 -162 14
-55 15 -186 3 -277 -3 -18 4 -19 120 -20 67 0 122 -3 122 -6 0 -4 -54 -7 -120
-7 -79 1 -124 -3 -132 -11 -6 -6 -10 -14 -7 -16 2 -2 49 -7 104 -10 114 -8
166 -14 173 -21 11 -11 -5 -13 -48 -5 -25 5 -89 10 -142 13 l-97 5 -28 -36
c-70 -93 -163 -153 -288 -186 -31 -8 -59 -17 -62 -19 -2 -3 7 -27 20 -54 23
-45 24 -58 25 -235 0 -174 2 -190 22 -218 l21 -29 -37 4 c-49 7 -101 33 -106
53 -3 9 -6 82 -7 162 -1 79 -5 148 -7 152 -17 28 -22 -13 -21 -170 2 -135 5
-183 16 -195 12 -15 11 -17 -9 -17 -33 0 -89 30 -102 54 -6 12 -12 83 -13 171
-3 183 -3 177 -14 171 -5 -4 -10 -81 -11 -173 0 -108 -5 -172 -12 -181 -19
-22 -65 -42 -98 -42 -30 0 -30 0 -17 28 17 33 24 346 8 356 -17 11 -20 -8 -22
-154 0 -79 -5 -153 -9 -165 -10 -27 -48 -52 -88 -58 -35 -6 -37 -4 -23 22 10
18 18 247 9 256 -2 3 -43 7 -89 8 -124 5 -154 26 -242 172 -19 33 -50 75 -67
93 -18 17 -28 32 -24 32 23 0 53 -13 49 -20 -3 -5 3 -6 13 -3 10 2 24 -3 31
-11 10 -12 10 -16 2 -16 -7 0 -9 -5 -5 -11 4 -8 9 -7 15 2 6 11 17 6 46 -21
21 -19 40 -38 43 -41 18 -21 82 -41 149 -46 l78 -6 7 29 c4 15 20 47 35 70
l28 41 -78 17 c-135 29 -212 76 -321 196 -13 14 -28 18 -62 15 -25 -2 -46 1
-46 6 0 5 18 9 39 9 40 0 61 13 41 25 -6 4 -71 7 -145 8 -74 1 -132 4 -129 6
2 3 61 6 131 8 70 2 128 5 129 6 1 1 -2 25 -7 52 -17 84 -12 208 11 274 22 65
57 131 71 131 4 0 7 46 5 103 -2 56 1 121 6 145 9 39 11 42 41 41 18 -1 52 -8
77 -15z m1325 -744 c3 -5 -1 -10 -10 -10 -9 0 -13 5 -10 10 3 6 8 10 10 10 2
0 7 -4 10 -10z m-1605 -52 c0 -4 -19 -8 -42 -9 -24 0 -54 -2 -68 -5 -68 -11
-82 -12 -73 -3 5 5 36 12 68 15 33 4 61 7 62 8 7 6 53 1 53 -6z"/>
<path d="M740 910 c0 -5 5 -10 10 -10 6 0 10 5 10 10 0 6 -4 10 -10 10 -5 0
-10 -4 -10 -10z"/>
<path d="M770 880 c0 -5 5 -10 10 -10 6 0 10 5 10 10 0 6 -4 10 -10 10 -5 0
-10 -4 -10 -10z"/>
<path d="M795 850 c3 -5 10 -10 16 -10 5 0 9 5 9 10 0 6 -7 10 -16 10 -8 0
-12 -4 -9 -10z"/>
<path d="M846 833 c-11 -11 -6 -23 9 -23 8 0 15 4 15 9 0 13 -16 22 -24 14z"/>
<path d="M897 814 c-11 -11 3 -24 18 -18 8 4 12 10 9 15 -6 11 -18 12 -27 3z"/>
<path d="M956 813 c-11 -11 -6 -23 8 -23 8 0 17 4 20 9 7 10 -19 23 -28 14z"/>
<path d="M1010 800 c0 -5 7 -10 15 -10 8 0 15 5 15 10 0 6 -7 10 -15 10 -8 0
-15 -4 -15 -10z"/>
</g>
</svg>
